<mxfile host="app.diagrams.net" modified="2024-04-07T19:45:02.925Z" agent="Mozilla/5.0 (Windows NT 10.0; Win64; x64) AppleWebKit/537.36 (KHTML, like Gecko) Chrome/123.0.0.0 Safari/537.36 Edg/123.0.0.0" etag="ZXjiw7n9XSztT_Ex8DIQ" version="24.2.2" type="github">
  <diagram name="第 1 页" id="E_9ZUGZub5r1t7u37brj">
    <mxGraphModel dx="1000" dy="605" grid="1" gridSize="10" guides="1" tooltips="1" connect="1" arrows="1" fold="1" page="1" pageScale="1" pageWidth="850" pageHeight="1100" math="0" shadow="0">
      <root>
        <mxCell id="0" />
        <mxCell id="1" parent="0" />
        <mxCell id="_085nPTa5El5RhCGtDlV-1" value="&lt;p&gt;&lt;font face=&quot;Times New Roman&quot;&gt;Research goal: Optimizing the usability and robustness of deep neural network models in resource-constrained AIoT devices&lt;/font&gt;&lt;/p&gt;" style="rounded=1;whiteSpace=wrap;html=1;" vertex="1" parent="1">
          <mxGeometry x="175" y="60" width="500" height="60" as="geometry" />
        </mxCell>
      </root>
    </mxGraphModel>
  </diagram>
</mxfile>
